
<?xml version="1.0" encoding="iso-8859-1"?>
<!-- Generator: Adobe Illustrator 19.0.0, SVG Export Plug-In . SVG Version: 6.00 Build 0)  -->
<svg version="1.1" id="Layer_1" xmlns="http://www.w3.org/2000/svg" xmlns:xlink="http://www.w3.org/1999/xlink" x="0px" y="0px"
	 viewBox="0 0 512.001 512.001" style="enable-background:new 0 0 512.001 512.001;" xml:space="preserve">
<path style="fill:#F46C51;" d="M506.378,145.537c-10.911-44.21-37.976-89.951-97.132-110.517
	C322.674,4.92,269.662,47.222,255.994,60.246C242.335,47.222,189.323,4.92,102.747,35.02C43.596,55.586,16.53,101.331,5.619,145.537
	c-9.385,38.028-6.718,78.277,5.788,115.263C41.066,348.525,132.8,574.772,255.999,451.736
	C379.201,574.776,470.931,348.529,500.595,260.8C513.1,223.813,515.767,183.565,506.378,145.537z"/>
<path style="fill:#FFE388;" d="M471.557,152.461c-10.161-38.65-27.027-68.476-65.891-86.191
	c-68.21-31.091-136.943,14.457-149.668,25.844l0,0c-12.725-11.387-81.458-53.591-149.672-22.499
	c-38.86,17.715-55.726,47.541-65.886,86.191c-8.742,33.248-6.255,68.433,5.389,100.772
	c27.623,76.695,99.417,276.639,210.169,161.796v-3.344c110.255,121.042,182.551-85.102,210.169-161.796
	C477.816,220.894,480.299,185.708,471.557,152.461z"/>
<g>
	<ellipse style="fill:#A05F32;" cx="225.949" cy="260.555" rx="20.039" ry="32.785"/>
	<ellipse style="fill:#A05F32;" cx="291.073" cy="260.555" rx="20.039" ry="32.785"/>
</g>
<g style="opacity:0.3;">
	<circle style="fill:#FFFFFF;" cx="438.584" cy="96.624" r="28.574"/>
	<circle style="fill:#FFFFFF;" cx="472.496" cy="158.047" r="14.289"/>
</g>
<g>
	<ellipse style="fill:#D3966C;" cx="298.477" cy="248.409" rx="7.426" ry="12.146"/>
	<ellipse style="fill:#D3966C;" cx="233.396" cy="248.409" rx="7.426" ry="12.146"/>
</g>
<path style="fill:#F46C51;" d="M255.999,418.373c-13.929,14.804-27.275,24.133-39.91,29.338
	c14.778-0.793,30.817-6.907,47.854-20.862C258.687,421.846,255.999,418.373,255.999,418.373z"/>
<path style="opacity:0.1;enable-background:new    ;" d="M116.162,365.13C33.461,229.275,62.618,153.94,62.618,153.94
	C84.162,77.533,141.04,54.879,190.961,50.815C137.01,49.901,65.268,66.759,40.44,155.805c0,0-29.158,76.189,53.543,213.578
	c0,0,49.183,108.364,122.105,78.328C155.549,450.952,116.162,365.13,116.162,365.13z"/>
<path style="opacity:0.2;enable-background:new    ;" d="M263.943,426.849c-17.038,13.955-33.076,20.069-47.854,20.862
	c-72.922,30.041-122.105-78.328-122.105-78.328C11.283,231.989,40.44,155.805,40.44,155.805
	C65.268,66.759,137.01,49.901,190.961,50.819c21.188-1.723,41.115-0.103,56.562,2.182c-21.359-16.57-70.8-43.7-144.776-17.981
	C43.596,55.586,16.53,101.331,5.619,145.537c-9.385,38.028-6.718,78.277,5.788,115.263
	C41.066,348.525,132.8,574.772,255.999,451.736c51.091,51.022,96.759,41.955,134.842,7.636
	C324.08,474.695,280.775,442.875,263.943,426.849z"/>
<path style="fill:#F46C51;" d="M190.961,50.819c36.613,0.622,65.038,9.428,65.038,9.428c-1.989-1.895-4.836-4.42-8.476-7.245
	C232.076,50.716,212.149,49.091,190.961,50.819z"/>
<g>
</g>
<g>
</g>
<g>
</g>
<g>
</g>
<g>
</g>
<g>
</g>
<g>
</g>
<g>
</g>
<g>
</g>
<g>
</g>
<g>
</g>
<g>
</g>
<g>
</g>
<g>
</g>
<g>
</g>
</svg>

